<svg xmlns="http://www.w3.org/2000/svg" xmlns:xlink="http://www.w3.org/1999/xlink" version="1.1" id="Sydney_Harbour_Bridge" x="0px" y="0px" width="100px" height="100px" viewBox="0 0 100 100" enable-background="new 0 0 100 100" xml:space="preserve">
<path fill="#000000" d="M5.297,63.906H0v-8.768V51.32h0.586v-2.063h0.79v-0.395h2.271H1.651h2.27v0.395h0.792v2.063h0.584v3.818  V63.906H0 M3.233,52.148H1.961v2.729h1.272V52.148z"/>
<path fill="#000000" d="M100,63.853h-5.297v-8.767v-3.817h0.584v-2.064h0.791v-0.395h2.271h-1.995h2.27v0.395h0.792v2.064H100v3.817  V63.853h-5.297 M98.063,52.148h-1.271v2.729h1.271V52.148z"/>
<path fill="#000000" d="M7.018,52.629c0,0,21.542-11.467,42.988-11.42c21.448,0.045,43.064,11.42,43.064,11.42v10.249  c0,0-19.016-18.276-43.064-18.3c-24.047-0.021-42.988,18.3-42.988,18.3V52.629z M7.66,52.903v8.301c0,0,19.415-17.29,42.384-17.29  c22.97,0,42.232,17.015,42.232,17.015v-7.888c0,0-21.923-11.328-42.308-11.328S7.66,52.903,7.66,52.903z"/>
<rect x="8.577" y="52.043" fill="#000000" width="0.407" height="9.094"/>
<rect x="11.419" y="50.892" fill="#000000" width="0.39" height="7.629"/>
<rect x="14.333" y="49.646" fill="#000000" width="0.435" height="6.741"/>
<rect x="17.394" y="48.086" fill="#000000" width="0.435" height="7.43"/>
<rect x="20.214" y="47.229" fill="#000000" width="0.435" height="8.288"/>
<rect x="23.068" y="46.414" fill="#000000" width="0.437" height="9.103"/>
<rect x="25.958" y="45.472" fill="#000000" width="0.437" height="10.044"/>
<rect x="28.881" y="44.624" fill="#000000" width="0.437" height="10.893"/>
<rect x="31.84" y="43.988" fill="#000000" width="0.437" height="11.528"/>
<rect x="34.763" y="43.203" fill="#000000" width="0.437" height="12.314"/>
<rect x="37.825" y="42.699" fill="#000000" width="0.436" height="12.818"/>
<rect x="40.749" y="42.148" fill="#000000" width="0.435" height="13.369"/>
<rect x="43.707" y="41.713" fill="#000000" width="0.436" height="13.804"/>
<rect x="46.802" y="41.553" fill="#000000" width="0.436" height="13.805"/>
<rect x="49.825" y="41.553" fill="#000000" width="0.438" height="13.964"/>
<rect x="90.882" y="51.973" fill="#000000" width="0.406" height="9.094"/>
<rect x="88.055" y="50.822" fill="#000000" width="0.391" height="7.629"/>
<rect x="85.097" y="49.577" fill="#000000" width="0.437" height="6.741"/>
<rect x="82.036" y="48.017" fill="#000000" width="0.436" height="7.43"/>
<rect x="79.215" y="47.158" fill="#000000" width="0.436" height="8.288"/>
<rect x="76.36" y="46.343" fill="#000000" width="0.436" height="9.103"/>
<rect x="73.471" y="45.402" fill="#000000" width="0.437" height="10.044"/>
<rect x="70.547" y="44.554" fill="#000000" width="0.436" height="10.892"/>
<rect x="67.589" y="43.917" fill="#000000" width="0.437" height="11.529"/>
<rect x="64.665" y="43.132" fill="#000000" width="0.436" height="12.314"/>
<rect x="61.604" y="42.627" fill="#000000" width="0.437" height="12.819"/>
<rect x="58.681" y="42.078" fill="#000000" width="0.436" height="13.368"/>
<rect x="55.723" y="41.643" fill="#000000" width="0.437" height="13.804"/>
<rect x="52.627" y="41.482" fill="#000000" width="0.435" height="13.804"/>
<rect x="10.157" y="51.801" transform="matrix(0.9199 -0.3922 0.3922 0.9199 -20.8793 8.5033)" fill="#000000" width="0.436" height="7.12"/>
<rect x="13.008" y="50.316" transform="matrix(0.9089 -0.4169 0.4169 0.9089 -21.1446 10.3954)" fill="#000000" width="0.436" height="6.576"/>
<rect x="15.943" y="48.963" transform="matrix(0.8681 -0.4964 0.4964 0.8681 -23.6787 14.8801)" fill="#000000" width="0.435" height="6.067"/>
<rect x="18.821" y="47.836" transform="matrix(0.8664 -0.4993 0.4993 0.8664 -22.7005 16.2581)" fill="#000000" width="0.436" height="5.448"/>
<rect x="21.71" y="46.777" transform="matrix(0.8324 -0.5542 0.5542 0.8324 -23.6848 20.4263)" fill="#000000" width="0.435" height="5.186"/>
<rect x="24.507" y="45.687" transform="matrix(0.7716 -0.6361 0.6361 0.7716 -24.9537 26.7147)" fill="#000000" width="0.436" height="4.84"/>
<rect x="27.334" y="44.715" transform="matrix(0.7188 -0.6953 0.6953 0.7188 -24.9087 32.3661)" fill="#000000" width="0.436" height="4.514"/>
<rect x="30.314" y="43.996" transform="matrix(0.7308 -0.6826 0.6826 0.7308 -23.1686 33.2168)" fill="#000000" width="0.435" height="3.975"/>
<rect x="33.241" y="43.16" transform="matrix(0.6964 -0.7177 0.7177 0.6964 -22.2792 37.7349)" fill="#000000" width="0.436" height="4.077"/>
<rect x="36.447" y="42.569" transform="matrix(0.6555 -0.7552 0.7552 0.6555 -20.9626 43.0149)" fill="#000000" width="0.436" height="3.829"/>
<rect x="39.265" y="42.016" transform="matrix(0.6645 -0.7473 0.7473 0.6645 -19.4543 44.1861)" fill="#000000" width="0.436" height="3.487"/>
<rect x="42.158" y="41.578" transform="matrix(0.6149 -0.7886 0.7886 0.6149 -17.8452 50.097)" fill="#000000" width="0.436" height="3.487"/>
<rect x="45.178" y="41.318" transform="matrix(0.6174 -0.7866 0.7866 0.6174 -16.5066 52.1841)" fill="#000000" width="0.436" height="3.489"/>
<rect x="48.247" y="40.902" transform="matrix(0.6675 -0.7446 0.7446 0.6675 -15.7573 50.3222)" fill="#000000" width="0.437" height="3.804"/>
<rect x="89.489" y="51.8" transform="matrix(-0.9201 -0.3918 0.3918 -0.9201 150.5557 141.44)" fill="#000000" width="0.436" height="7.121"/>
<rect x="86.637" y="50.317" transform="matrix(-0.9095 -0.4157 0.4157 -0.9095 143.5726 138.4606)" fill="#000000" width="0.437" height="6.575"/>
<rect x="83.705" y="48.963" transform="matrix(-0.8684 -0.4959 0.4959 -0.8684 131.0139 138.7668)" fill="#000000" width="0.435" height="6.067"/>
<rect x="80.824" y="47.837" transform="matrix(-0.867 -0.4983 0.4983 -0.867 126.1131 134.7802)" fill="#000000" width="0.437" height="5.447"/>
<rect x="77.938" y="46.777" transform="matrix(-0.8324 -0.5542 0.5542 -0.8324 115.8514 133.7774)" fill="#000000" width="0.435" height="5.186"/>
<rect x="75.139" y="45.687" transform="matrix(-0.7721 -0.6356 0.6356 -0.7721 102.9636 133.1413)" fill="#000000" width="0.436" height="4.839"/>
<rect x="72.312" y="44.715" transform="matrix(-0.7188 -0.6953 0.6953 -0.7188 92.0051 131.1606)" fill="#000000" width="0.436" height="4.514"/>
<rect x="69.334" y="43.996" transform="matrix(-0.7314 -0.682 0.682 -0.7314 89.0569 127.0482)" fill="#000000" width="0.435" height="3.975"/>
<rect x="66.407" y="43.16" transform="matrix(-0.6952 -0.7188 0.7188 -0.6952 80.4559 124.5114)" fill="#000000" width="0.435" height="4.078"/>
<rect x="63.199" y="42.569" transform="matrix(-0.6574 -0.7535 0.7535 -0.6574 71.5876 121.5146)" fill="#000000" width="0.437" height="3.829"/>
<rect x="60.382" y="42.015" transform="matrix(-0.6633 -0.7484 0.7484 -0.6633 68.0438 118.1356)" fill="#000000" width="0.436" height="3.488"/>
<rect x="57.488" y="41.578" transform="matrix(-0.6156 -0.788 0.788 -0.6156 59.0948 115.4663)" fill="#000000" width="0.436" height="3.486"/>
<rect x="54.469" y="41.318" transform="matrix(-0.6167 -0.7872 0.7872 -0.6167 54.5169 112.6679)" fill="#000000" width="0.435" height="3.488"/>
<rect x="51.399" y="40.902" transform="matrix(-0.6669 -0.7452 0.7452 -0.6669 54.1425 109.8132)" fill="#000000" width="0.436" height="3.804"/>
<rect x="4.817" y="53.571" fill="#000000" width="45.471" height="1.574"/>
<rect x="49.781" y="53.571" fill="#000000" width="45.472" height="1.574"/>
</svg>