<svg xmlns="http://www.w3.org/2000/svg" xmlns:xlink="http://www.w3.org/1999/xlink" version="1.1" id="Layer_1" x="0px" y="0px" viewBox="0 0 100 100" enable-background="new 0 0 100 100" xml:space="preserve" height="100px" width="100px">
<path fill="none" d="M23.031,39.028v-0.993h-5.205c-1.284,0-2.328,0.987-2.328,2.2V80.57c0,0.978,0.843,1.773,1.879,1.773h63.846  c1.036,0,1.879-0.796,1.879-1.773V39.707c0-0.922-0.795-1.672-1.772-1.672h-5.546v0.993H23.031z M71.172,41.694h3.892v2.162h-3.892  V41.694z M66.416,41.694h3.892v2.162h-3.892V41.694z M72.469,50.83h-3.027v-2.65h3.027V50.83z M73.767,51.64v2.65H70.74v-2.65  H73.767z M62.956,54.29v-2.65h3.027v2.65H62.956z M65.983,55.099v2.65h-3.027v-2.65H65.983z M65.551,50.83v-2.65h3.027v2.65H65.551z   M66.848,51.64h3.027v2.65h-3.027V51.64z M66.416,44.721h3.892v2.65h-3.892V44.721z M61.875,41.766h3.892v2.162h-3.892V41.766z   M61.875,44.809h3.892v2.65h-3.892V44.809z M61.659,48.18h3.027v2.65h-3.027C61.659,50.83,61.659,48.18,61.659,48.18z M55.173,54.29  v-2.65H58.2v2.65H55.173z M58.2,55.099v2.65h-3.027v-2.65H58.2z M57.768,50.83v-2.65h3.027v2.65H57.768z M59.065,55.099h3.027v2.65  h-3.027V55.099z M59.065,54.29v-2.65h3.027v2.65H59.065z M56.903,41.694h3.892v2.162h-3.892V41.694z M56.903,44.721h3.892v2.65  h-3.892V44.721z M56.903,50.83h-3.027v-2.65h3.027V50.83z M43.498,54.29v-2.65h3.027v2.65H43.498z M46.525,55.099v2.65h-3.027v-2.65  H46.525z M46.093,50.83v-2.65h3.027v2.65H46.093z M47.39,55.099h3.027v2.65H47.39V55.099z M47.39,54.29v-2.65h3.027v2.65H47.39z   M49.984,50.83v-2.65h3.027v2.65H49.984z M51.281,55.099h3.027v2.65h-3.027V55.099z M51.281,54.29v-2.65h3.027v2.65H51.281z   M52.146,41.694h3.892v2.162h-3.892V41.694z M52.146,44.721h3.892v2.65h-3.892V44.721z M47.39,41.694h3.892v2.162H47.39V41.694z   M47.39,44.721h3.892v2.65H47.39V44.721z M42.633,41.694h3.892v2.162h-3.892V41.694z M42.633,44.721h3.892v2.65h-3.892V44.721z   M42.201,48.18h3.027v2.65h-3.027V48.18z M35.715,55.099h3.027v2.65h-3.027V55.099z M35.246,54.29v-2.65h3.495v2.65H35.246z   M38.309,50.83v-2.65h3.027v2.65H38.309z M39.607,55.099h3.027v2.65h-3.027V55.099z M39.607,54.29v-2.65h3.027v2.65H39.607z   M37.877,41.694h3.892v2.162h-3.892V41.694z M37.877,44.721h3.892v2.65h-3.892V44.721z M37.408,50.83h-3.423v-2.65h3.423V50.83z   M31.823,55.099h3.027v2.65h-3.027C31.823,57.749,31.823,55.099,31.823,55.099z M30.958,54.29v-2.65h3.315v2.65H30.958z   M33.12,41.694h3.892v2.162H33.12V41.694z M33.12,44.721h3.892v2.65H33.12V44.721z M33.12,50.83h-3.459v-2.65h3.459V50.83z   M26.634,51.64h3.315v2.65h-3.315V51.64z M25.337,50.83v-2.65h3.315v2.65H25.337z M27.499,55.099h3.459v2.65h-3.459V55.099z   M28.364,41.694h3.892v2.162h-3.892V41.694z M28.364,44.721h3.892v2.65h-3.892V44.721z M23.608,41.694H27.5v2.162h-3.892V41.694z   M23.608,44.721H27.5v2.65h-3.892V44.721z M18.851,41.694h3.892v2.162h-3.892V41.694z M18.851,44.721h3.892v2.65h-3.892V44.721z   M18.851,48.18H24.4v2.65h-5.549V48.18z M18.851,51.64h6.702v2.65h-6.702V51.64z M26.634,55.099v2.65H24.04v-2.65H26.634z   M18.851,55.099h4.18v2.65h-4.18V55.099z M21.626,61.208h-2.775v-2.65h2.775V61.208z M25.625,61.208H22.31v-2.65h3.315V61.208z   M29.661,61.208h-3.027v-2.65h3.027V61.208z M33.553,61.208h-3.027v-2.65h3.027V61.208z M37.877,61.208h-3.459v-2.65h3.459V61.208z   M38.742,58.558h19.242v2.65H38.742V58.558z M59.064,77.872h-19.53V64.179h19.53C59.064,64.179,59.064,77.872,59.064,77.872z   M62.957,61.208h-3.892v-2.65h3.892V61.208z M66.848,61.208h-3.027v-2.65h3.027V61.208z M66.848,55.099h3.027v2.65h-3.027V55.099z   M72.037,61.18H69.01v-1.325h3.027V61.18z M75.496,61.18h-3.027v-1.325h3.027V61.18z M75.496,59.621h-3.027v-1.297h3.027V59.621z   M78.955,61.18h-3.027v-1.325h3.027V61.18z M79.82,57.749h-8.648v-2.65h8.648V57.749z M79.82,50.342v0.488v3.459h-4.756V50.83  h-1.343v-2.65h6.099V50.342z M75.928,41.694h3.892v2.162h-3.892V41.694z M75.928,44.721h0.343h3.549v2.65h-3.549h-0.343h-4.756  v-2.65H75.928z"/>
<path d="M81.329,37.784c1.117,0.001,2.022,0.861,2.022,1.923V80.57c0,1.117-0.953,2.023-2.129,2.023H17.377  c-1.176,0-2.129-0.906-2.129-2.023V40.234c0-1.353,1.154-2.45,2.578-2.45h5.205v-0.25h-5.206c-1.559,0-2.828,1.211-2.828,2.7V80.57  c0,1.253,1.067,2.273,2.379,2.273h63.847c1.311,0,2.379-1.02,2.377-2.274V39.706c0-1.198-1.019-2.172-2.272-2.172h-5.544v0.25  H81.329z"/>
<path d="M15.248,40.234V80.57c0,1.117,0.953,2.023,2.129,2.023h63.845c1.176,0,2.129-0.906,2.129-2.023V39.707  c0-1.062-0.905-1.922-2.022-1.923h-5.545v0.251h5.546c0.977,0,1.772,0.75,1.772,1.672V80.57c0,0.977-0.843,1.773-1.879,1.773H17.377  c-1.036,0-1.879-0.795-1.879-1.773V40.235c0-1.213,1.044-2.2,2.328-2.2h5.205v-0.251h-5.205  C16.402,37.784,15.248,38.881,15.248,40.234z"/>
<rect x="23.031" y="37.332" width="52.753" height="0.202"/>
<rect x="23.031" y="38.035" width="52.753" height="0.993"/>
<rect x="23.031" y="37.534" width="52.753" height="0.25"/>
<rect x="23.031" y="37.784" width="52.753" height="0.251"/>
<path fill="none" d="M10.919,18.979c-0.057,0.141-0.085,0.292-0.044,0.445l4.46,16.873c0.083,0.315,0.369,0.535,0.694,0.535h66.576  c0.326,0,0.611-0.22,0.694-0.535l4.462-16.873c0.042-0.159,0.011-0.317-0.053-0.464l-0.154,0.019  C87.554,18.979,10.919,18.979,10.919,18.979z M81.73,36.433h-0.108H16.977h-0.108l-4.216-16.215h73.293L81.73,36.433z"/>
<path d="M88.033,18.497c-0.164-0.213-0.389-0.357-0.64-0.427c0.132,0.145,0.253,0.307,0.354,0.49l0,0  c0.232,0.233,0.348,0.576,0.255,0.928l-4.461,16.873c-0.112,0.425-0.497,0.721-0.936,0.721h0.782h-0.782h-6.821v0.25h7.604v-0.284  c0.189-0.158,0.331-0.373,0.396-0.623l4.462-16.873C88.343,19.184,88.265,18.799,88.033,18.497z"/>
<polygon points="16.03,37.082 15.248,37.082 15.248,37.332 23.031,37.332 23.031,37.082 "/>
<path d="M15.094,36.361l-4.461-16.873c-0.091-0.343,0.018-0.679,0.239-0.911l0.01-0.026c0.061-0.161,0.146-0.303,0.239-0.437  c-0.201,0.08-0.381,0.206-0.517,0.383c-0.232,0.303-0.31,0.687-0.212,1.055l4.46,16.873c0.066,0.25,0.208,0.465,0.396,0.623v0.034  h0.782C15.59,37.082,15.206,36.786,15.094,36.361z"/>
<rect x="23.031" y="37.082" width="52.753" height="0.25"/>
<path d="M87.708,18.96c0.064,0.146,0.095,0.305,0.053,0.464l-4.462,16.873c-0.083,0.315-0.368,0.535-0.694,0.535H16.029  c-0.325,0-0.611-0.22-0.694-0.535l-4.46-16.873c-0.041-0.153-0.013-0.304,0.044-0.445H10.72l0.152-0.402  c-0.221,0.233-0.33,0.568-0.239,0.911l4.461,16.873c0.112,0.425,0.496,0.721,0.936,0.721h7.001h52.753h6.821  c0.439,0,0.824-0.296,0.936-0.721l4.461-16.873c0.093-0.351-0.023-0.695-0.255-0.928l0.205,0.371L87.708,18.96z"/>
<polygon points="16.869,36.433 16.977,36.433 81.622,36.433 81.73,36.433 85.946,20.218 12.653,20.218 "/>
<path fill="#000000" d="M85.785,17.833H12.522c-0.219,0-0.429,0.069-0.614,0.189h74.62C86.297,17.901,86.046,17.833,85.785,17.833z"/>
<path fill="none" d="M11.908,18.022c-0.103,0.067-0.195,0.153-0.28,0.25H86.88c-0.11-0.098-0.227-0.184-0.352-0.25H11.908z"/>
<path fill="#000000" d="M11.47,18.479h75.619c-0.064-0.077-0.137-0.142-0.209-0.207H11.628  C11.572,18.337,11.516,18.402,11.47,18.479z"/>
<path d="M12.522,17.583h73.263c0.428,0,0.829,0.167,1.169,0.439h0.113c0.113,0,0.221,0.019,0.326,0.049  c-0.426-0.468-0.994-0.737-1.607-0.737H12.523c-0.56,0-1.069,0.299-1.402,0.781c0.128-0.051,0.264-0.083,0.407-0.087  C11.801,17.755,12.146,17.583,12.522,17.583z"/>
<path d="M11,18.802c-0.041,0.053-0.057,0.117-0.081,0.177h76.635l0.154-0.019c-0.023-0.053-0.036-0.111-0.073-0.158  c-0.024-0.031-0.061-0.046-0.089-0.073H11.089C11.061,18.756,11.024,18.771,11,18.802z"/>
<path d="M86.954,18.022c0.103,0.082,0.202,0.168,0.291,0.271c0.197,0.037,0.368,0.133,0.502,0.267l0,0  c-0.101-0.182-0.222-0.344-0.354-0.49c-0.105-0.029-0.214-0.049-0.326-0.049L86.954,18.022L86.954,18.022z"/>
<path d="M10.872,18.577c0.113-0.12,0.255-0.211,0.419-0.26c0.069-0.109,0.149-0.203,0.236-0.29  c-0.142,0.005-0.278,0.036-0.407,0.087c-0.093,0.134-0.178,0.276-0.239,0.437L10.872,18.577z"/>
<path d="M87.526,18.682l0.026,0.047h-0.006c0.028,0.027,0.065,0.042,0.089,0.073c0.037,0.048,0.049,0.105,0.073,0.158l0.244-0.029  l-0.205-0.371c-0.134-0.134-0.305-0.23-0.502-0.267C87.348,18.412,87.446,18.537,87.526,18.682z"/>
<path d="M10.919,18.979c0.024-0.06,0.04-0.124,0.081-0.177c0.024-0.031,0.061-0.046,0.089-0.073h-0.007l0.034-0.089  c0.045-0.119,0.111-0.221,0.176-0.323c-0.164,0.049-0.306,0.14-0.419,0.26l-0.152,0.402H10.919z"/>
<path d="M11.908,18.022c0.186-0.12,0.395-0.189,0.614-0.189h73.263c0.261,0,0.512,0.068,0.742,0.189h0.427  c-0.341-0.272-0.742-0.439-1.169-0.439H12.522c-0.376,0-0.721,0.172-0.994,0.444c0.014,0,0.027-0.005,0.041-0.005  C11.569,18.022,11.908,18.022,11.908,18.022z"/>
<path d="M11.569,18.522c-0.185,0-0.348,0.083-0.48,0.207h76.457c-0.132-0.124-0.296-0.207-0.48-0.207H11.569z"/>
<path d="M11.628,18.272c0.084-0.097,0.177-0.183,0.28-0.25h-0.339c-0.014,0-0.027,0.004-0.041,0.005  c-0.088,0.087-0.167,0.181-0.236,0.29c0.088-0.026,0.18-0.045,0.277-0.045H11.628z"/>
<path d="M86.88,18.272h0.186c0.062,0,0.121,0.01,0.18,0.021c-0.089-0.103-0.188-0.189-0.291-0.271h-0.427  C86.653,18.088,86.77,18.174,86.88,18.272z"/>
<path d="M11.082,18.729h0.007c0.132-0.124,0.295-0.207,0.48-0.207h75.497c0.184,0,0.348,0.083,0.48,0.207h0.006l-0.026-0.047  c-0.08-0.145-0.178-0.27-0.28-0.389c-0.058-0.011-0.117-0.021-0.18-0.021H86.88c0.073,0.065,0.145,0.13,0.209,0.207H11.47  c0.046-0.077,0.102-0.142,0.158-0.207h-0.059c-0.098,0-0.189,0.018-0.277,0.045c-0.065,0.102-0.13,0.204-0.176,0.323L11.082,18.729z  "/>
<rect x="39.534" y="64.179" width="19.53" height="13.693"/>
<rect x="71.172" y="55.099" width="8.648" height="2.65"/>
<rect x="76.271" y="44.721" width="3.549" height="2.65"/>
<rect x="71.172" y="44.721" width="4.756" height="2.65"/>
<rect x="75.928" y="44.721" width="0.343" height="2.65"/>
<rect x="66.416" y="44.721" width="3.892" height="2.65"/>
<rect x="61.875" y="44.809" width="3.892" height="2.65"/>
<rect x="56.903" y="44.721" width="3.892" height="2.65"/>
<rect x="52.146" y="44.721" width="3.892" height="2.65"/>
<rect x="47.39" y="44.721" width="3.892" height="2.65"/>
<rect x="42.633" y="44.721" width="3.892" height="2.65"/>
<rect x="37.877" y="44.721" width="3.892" height="2.65"/>
<rect x="33.12" y="44.721" width="3.892" height="2.65"/>
<rect x="28.364" y="44.721" width="3.892" height="2.65"/>
<rect x="66.848" y="55.099" width="3.027" height="2.65"/>
<rect x="70.74" y="51.64" width="3.027" height="2.65"/>
<rect x="75.928" y="59.855" width="3.027" height="1.325"/>
<rect x="69.01" y="59.855" width="3.027" height="1.325"/>
<rect x="72.469" y="59.855" width="3.027" height="1.325"/>
<rect x="72.469" y="58.324" width="3.027" height="1.297"/>
<rect x="63.821" y="58.558" width="3.027" height="2.65"/>
<rect x="62.956" y="55.099" width="3.027" height="2.65"/>
<rect x="59.065" y="58.558" width="3.892" height="2.65"/>
<rect x="59.065" y="55.099" width="3.027" height="2.65"/>
<rect x="55.173" y="55.099" width="3.027" height="2.65"/>
<rect x="51.281" y="55.099" width="3.027" height="2.65"/>
<rect x="47.39" y="55.099" width="3.027" height="2.65"/>
<rect x="43.498" y="55.099" width="3.027" height="2.65"/>
<rect x="39.607" y="55.099" width="3.027" height="2.65"/>
<rect x="35.715" y="55.099" width="3.027" height="2.65"/>
<rect x="38.742" y="58.558" width="19.242" height="2.65"/>
<rect x="34.418" y="58.558" width="3.459" height="2.65"/>
<rect x="30.526" y="58.558" width="3.027" height="2.65"/>
<rect x="26.634" y="58.558" width="3.027" height="2.65"/>
<rect x="22.31" y="58.558" width="3.315" height="2.65"/>
<rect x="31.823" y="55.099" width="3.027" height="2.65"/>
<rect x="27.499" y="55.099" width="3.459" height="2.65"/>
<rect x="24.04" y="55.099" width="2.594" height="2.65"/>
<rect x="66.848" y="51.64" width="3.027" height="2.65"/>
<rect x="62.956" y="51.64" width="3.027" height="2.65"/>
<rect x="59.065" y="51.64" width="3.027" height="2.65"/>
<rect x="55.173" y="51.64" width="3.027" height="2.65"/>
<rect x="51.281" y="51.64" width="3.027" height="2.65"/>
<rect x="47.39" y="51.64" width="3.027" height="2.65"/>
<rect x="43.498" y="51.64" width="3.027" height="2.65"/>
<rect x="39.607" y="51.64" width="3.027" height="2.65"/>
<rect x="35.246" y="51.64" width="3.495" height="2.65"/>
<rect x="30.958" y="51.64" width="3.315" height="2.65"/>
<rect x="26.634" y="51.64" width="3.315" height="2.65"/>
<rect x="69.442" y="48.18" width="3.027" height="2.65"/>
<rect x="65.551" y="48.18" width="3.027" height="2.65"/>
<rect x="61.659" y="48.18" width="3.027" height="2.65"/>
<rect x="57.768" y="48.18" width="3.027" height="2.65"/>
<rect x="53.876" y="48.18" width="3.027" height="2.65"/>
<rect x="49.984" y="48.18" width="3.027" height="2.65"/>
<rect x="46.093" y="48.18" width="3.027" height="2.65"/>
<rect x="42.201" y="48.18" width="3.027" height="2.65"/>
<rect x="38.309" y="48.18" width="3.027" height="2.65"/>
<rect x="33.985" y="48.18" width="3.423" height="2.65"/>
<rect x="29.661" y="48.18" width="3.459" height="2.65"/>
<rect x="25.337" y="48.18" width="3.315" height="2.65"/>
<rect x="23.608" y="44.721" width="3.892" height="2.65"/>
<rect x="18.851" y="58.558" width="2.775" height="2.65"/>
<rect x="18.851" y="55.099" width="4.18" height="2.65"/>
<rect x="18.851" y="51.64" width="6.702" height="2.65"/>
<rect x="18.851" y="48.18" width="5.549" height="2.65"/>
<rect x="18.851" y="44.721" width="3.892" height="2.65"/>
<polygon points="73.721,50.83 75.064,50.83 75.064,50.342 79.82,50.342 79.82,48.18 73.721,48.18 "/>
<rect x="75.064" y="50.83" width="4.756" height="3.459"/>
<rect x="75.064" y="50.342" width="4.756" height="0.488"/>
<rect x="75.928" y="41.694" width="3.892" height="2.162"/>
<rect x="71.172" y="41.694" width="3.892" height="2.162"/>
<rect x="66.416" y="41.694" width="3.892" height="2.162"/>
<rect x="61.875" y="41.766" width="3.892" height="2.162"/>
<rect x="56.903" y="41.694" width="3.892" height="2.162"/>
<rect x="52.146" y="41.694" width="3.892" height="2.162"/>
<rect x="47.39" y="41.694" width="3.892" height="2.162"/>
<rect x="42.633" y="41.694" width="3.892" height="2.162"/>
<rect x="37.877" y="41.694" width="3.892" height="2.162"/>
<rect x="33.12" y="41.694" width="3.892" height="2.162"/>
<rect x="28.364" y="41.694" width="3.892" height="2.162"/>
<rect x="23.608" y="41.694" width="3.892" height="2.162"/>
<rect x="18.851" y="41.694" width="3.892" height="2.162"/>
</svg>